<?xml version="1.0" encoding="UTF-8"?>
<svg id="Layer_1" xmlns="http://www.w3.org/2000/svg" version="1.1" xmlns:xlink="http://www.w3.org/1999/xlink" viewBox="0 0 619.7 612.4">
  <!-- Generator: Adobe Illustrator 29.6.1, SVG Export Plug-In . SVG Version: 2.1.1 Build 9)  -->
  <defs>
    <style>
      .st0 {
        fill: #fff;
      }

      .st1 {
        fill: none;
      }

      .st2 {
        fill: #35b9e9;
      }

      .st3 {
        clip-path: url(#clippath-1);
      }

      .st4 {
        clip-path: url(#clippath);
      }
    </style>
    <clipPath id="clippath">
      <rect class="st1" x="4344.5" y="-584.4" width="222.9" height="467.3" rx="32.1" ry="32.1"/>
    </clipPath>
    <clipPath id="clippath-1">
      <rect class="st1" x="4304.4" y="-392.5" width="514.8" height="60.9" rx="-135.4" ry="-135.4"/>
    </clipPath>
  </defs>
  <image width="1600" height="995" transform="translate(-4116.1 612.4)" xlink:href="world_map_03-1.png"/>
  <image width="1600" height="842" transform="translate(4071.9 -713.7)" xlink:href="world_map_03-2.png"/>
  <rect class="st0" x="4861.7" y="-607.4" width="659.9" height="636.1" rx="12" ry="12"/>
  <g>
    <circle class="st2" cx="5891.1" cy="-619.9" r="79.8" transform="translate(2163.8 3984.1) rotate(-45)"/>
    <circle class="st2" cx="5879" cy="19.3" r="79.8" transform="translate(1708.3 4162.7) rotate(-45)"/>
  </g>
  <g>
    <circle class="st2" cx="6799.5" cy="-167.1" r="49.6"/>
    <circle class="st2" cx="7085.8" cy="-483.4" r="49.6" transform="translate(444.1 2032.6) rotate(-16.8)"/>
    <path class="st2" d="M7014.1-394s0,0,0,0h-.5c-1.9,0-3.9-.1-5.8-.1-3.4,0-6.7.1-10,.4l-113.2,1.6c-2.2.3-4.4.5-6.7.5-23.7,0-43-19.2-43-43s19.2-43,43-43h57.2c2.4.3,4.8.5,7.2.5,27.4,0,49.6-22.2,49.6-49.6s-22.2-49.6-49.6-49.6-3,0-4.4.2c-12.7-.3-31.7,0-59.5,0-78.2,0-141.5,63.4-141.5,141.5s60.3,138.4,135.8,141.4c0,0,0,0,0,.1h2.5c1.1,0,2.2,0,3.2,0,2.6,0,5.3,0,7.8-.2l121.5-2c23,0,41.6,18.6,41.6,41.6s-18.6,41.6-41.6,41.6l-62.8-.6c-.8,0-1.7,0-2.6,0s-.7,0-1.1,0h-2.7s0,.1,0,.1c-25.6,1.9-45.8,23.3-45.8,49.4s22.2,49.6,49.6,49.6,2.4,0,3.6-.1c11.2.5,30.4.8,61.8.8,77.7,0,140.7-63,140.7-140.7s-59.6-137.2-134.3-140.5Z"/>
  </g>
  <g>
    <path class="st2" d="M5368.9-335.5c-29.6-29.6-77.7-29.2-106.8.9-36.8,38.1-79.3,82.1-79.3,82.1-24.6,24.6-64.4,24.6-89,0-24.6-24.6-24.6-64.4,0-89l67.9-66.5c1-.9,1.9-1.7,2.8-2.7.4-.4.7-.8,1.1-1.2l2.9-2.8v-.2c25.2-29.5,23.9-73.9-4-101.9-29.3-29.3-76.8-29.3-106.1,0-1.3,1.3-2.5,2.6-3.7,4-12.4,11.3-32.8,31.1-65.7,64-83.2,83.2-84.2,220.2-.7,303.1,80.9,80.2,210.2,82.2,293.5,6,0,0,0,0,0,0l.6-.6c2.2-2,4.3-4,6.4-6.1,3.6-3.6,7-7.3,10.3-11.1,0,0,37.3-38.5,70.6-73s28-76.1-.9-105h0Z"/>
    <g class="st4">
      <image width="1600" height="842" transform="translate(3485.6 -701.5) scale(.9)" xlink:href="world_map_03-3.png"/>
    </g>
    <circle class="st2" cx="5430.1" cy="-407.5" r="75" transform="translate(1878.6 3720.3) rotate(-45)"/>
  </g>
  <g class="st3">
    <image width="1600" height="842" transform="translate(4033.1 -771.4) scale(1.2)" xlink:href="world_map_03-4.png"/>
  </g>
  <path class="st2" d="M463.1,282.2c-29.6-29.6-77.7-29.2-106.8.9-36.8,38.1-79.3,82.1-79.3,82.1-24.6,24.6-64.4,24.6-89,0-24.6-24.6-24.6-64.4,0-89l67.9-66.5c1-.9,1.9-1.7,2.8-2.7.4-.4.7-.8,1.1-1.2l2.9-2.8v-.2c25.2-29.5,23.9-73.9-4-101.9-29.3-29.3-76.8-29.3-106.1,0-1.3,1.3-2.5,2.6-3.7,4-12.4,11.3-32.8,31.1-65.7,64C0,252-1,389,82.6,471.9c80.9,80.2,210.2,82.2,293.5,6,0,0,0,0,0,0l.6-.6c2.2-2,4.3-4,6.4-6.1,3.6-3.6,7-7.3,10.3-11.1,0,0,37.3-38.5,70.6-73,28.4-29.4,28-76.1-.9-105h0Z"/>
  <circle class="st2" cx="524.3" cy="210.1" r="75" transform="translate(5 432.2) rotate(-45)"/>
</svg>